<svg preserveAspectRatio="none" overflow="visible" style="display: block;" width="21.9992" height="21.9992" viewBox="0 0 21.9992 21.9992" fill="none" xmlns="http://www.w3.org/2000/svg">
<g id="Graph">
<path id="Vector" d="M17.2332 17.2493L16.6096 16.8326L17.2332 17.2493ZM4.74987 4.76596L4.33319 4.14236L4.74987 4.76596ZM7.7664 3.4705L7.60109 2.73894L7.7664 3.4705ZM18.5287 14.2328L17.7971 14.0675L18.5287 14.2328ZM16.1942 0.93427L15.9071 1.62718L16.1942 0.93427ZM21.0649 5.80504L21.7578 5.51802L21.0649 5.80504ZM18.2157 9.24919V9.99919V9.99919V9.24919ZM17.25 9.24919V8.49919V8.49919V9.24919ZM12.75 4.74919H12V4.74919H12.75ZM12.75 3.78346H13.5V3.78346H12.75ZM18.5287 14.2328L17.7971 14.0675C17.5753 15.0492 17.1745 15.9872 16.6096 16.8326L17.2332 17.2493L17.8568 17.666C18.5244 16.6668 18.9981 15.5583 19.2602 14.3981L18.5287 14.2328ZM17.2332 17.2493L16.6096 16.8326C15.7031 18.1893 14.4146 19.2468 12.9071 19.8712L13.1942 20.5641L13.4812 21.257C15.2627 20.5191 16.7855 19.2694 17.8568 17.666L17.2332 17.2493ZM13.1942 20.5641L12.9071 19.8712C11.3997 20.4956 9.74085 20.659 8.14051 20.3407L7.99419 21.0763L7.84787 21.8118C9.73919 22.1881 11.6996 21.995 13.4812 21.257L13.1942 20.5641ZM7.99419 21.0763L8.14051 20.3407C6.54017 20.0223 5.07016 19.2366 3.91637 18.0828L3.38604 18.6131L2.85571 19.1435C4.21928 20.507 5.95656 21.4356 7.84787 21.8118L7.99419 21.0763ZM3.38604 18.6131L3.91637 18.0828C2.76259 16.929 1.97685 15.459 1.65853 13.8587L0.922937 14.005L0.187348 14.1513C0.563554 16.0426 1.49215 17.7799 2.85571 19.1435L3.38604 18.6131ZM0.922937 14.005L1.65853 13.8587C1.3402 12.2583 1.50358 10.5995 2.128 9.09205L1.43509 8.80504L0.742179 8.51802C0.00422454 10.2996 -0.188858 12.26 0.187348 14.1513L0.922937 14.005ZM1.43509 8.80504L2.128 9.09205C2.75242 7.58456 3.80984 6.29608 5.16655 5.38956L4.74987 4.76596L4.33319 4.14236C2.72982 5.2137 1.48013 6.73644 0.742179 8.51802L1.43509 8.80504ZM4.74987 4.76596L5.16655 5.38956C6.01198 4.82467 6.94996 4.4239 7.9317 4.20206L7.7664 3.4705L7.60109 2.73894C6.44088 3.00111 5.33234 3.47475 4.33319 4.14236L4.74987 4.76596ZM9.75 5.24919H9V7.24919H9.75H10.5V5.24919H9.75ZM14.75 12.2492V12.9992H16.75V12.2492V11.4992H14.75V12.2492ZM9.75 7.24919H9C9 10.4248 11.5744 12.9992 14.75 12.9992V12.2492V11.4992C12.4028 11.4992 10.5 9.5964 10.5 7.24919H9.75ZM7.7664 3.4705L7.9317 4.20206C8.42431 4.09074 9 4.4994 9 5.24919H9.75H10.5C10.5 3.78983 9.2633 2.36334 7.60109 2.73894L7.7664 3.4705ZM18.5287 14.2328L19.2602 14.3981C19.6358 12.7359 18.2094 11.4992 16.75 11.4992V12.2492V12.9992C17.4998 12.9992 17.9084 13.5749 17.7971 14.0675L18.5287 14.2328ZM16.1942 0.93427L15.9071 1.62718C16.9081 2.04178 17.8176 2.64947 18.5836 3.41556L19.114 2.88523L19.6443 2.35489C18.7389 1.44952 17.6641 0.731344 16.4812 0.24136L16.1942 0.93427ZM19.114 2.88523L18.5836 3.41556C19.3497 4.18164 19.9574 5.09111 20.372 6.09205L21.0649 5.80504L21.7578 5.51802C21.2678 4.3351 20.5497 3.26027 19.6443 2.35489L19.114 2.88523ZM18.2157 9.24919V8.49919H17.25V9.24919V9.99919H18.2157V9.24919ZM12.75 4.74919H13.5V3.78346H12.75H12V4.74919H12.75ZM21.0649 5.80504L20.372 6.09205C20.6237 6.69972 20.4842 7.26109 20.0904 7.70673C19.6797 8.17154 18.99 8.49919 18.2157 8.49919V9.24919V9.99919C19.3934 9.99919 20.5018 9.50643 21.2144 8.7C21.944 7.8744 22.2531 6.71369 21.7578 5.51802L21.0649 5.80504ZM17.25 9.24919V8.49919C15.1789 8.49919 13.5 6.82025 13.5 4.74919H12.75H12C12 7.64868 14.3505 9.99919 17.25 9.99919V9.24919ZM16.1942 0.93427L16.4812 0.24136C15.2855 -0.253903 14.1248 0.055212 13.2992 0.784767C12.4928 1.49739 12 2.60581 12 3.78346H12.75H13.5C13.5 3.00918 13.8277 2.31952 14.2925 1.90879C14.7381 1.51499 15.2995 1.37547 15.9071 1.62718L16.1942 0.93427Z" fill="#72777A"/>
</g>
</svg>
